<?xml version="1.0" standalone="no"?>
<!DOCTYPE svg PUBLIC "-//W3C//DTD SVG 20010904//EN"
 "http://www.w3.org/TR/2001/REC-SVG-20010904/DTD/svg10.dtd">
<svg version="1.0" xmlns="http://www.w3.org/2000/svg"
 width="256.000000pt" height="256.000000pt" viewBox="0 0 256.000000 256.000000"
 preserveAspectRatio="xMidYMid meet">
<metadata>
Created by potrace 1.16, written by Peter Selinger 2001-2019
</metadata>
<g transform="translate(0.000000,256.000000) scale(0.100000,-0.100000)"
fill="#000000" stroke="none">
<path d="M0 1280 l0 -1280 1280 0 1280 0 0 1280 0 1280 -1280 0 -1280 0 0
-1280z m1400 1036 c0 -6 4 -4 9 3 6 10 8 0 4 -28 l-6 -43 45 7 c34 5 49 3 60
-9 10 -9 24 -13 38 -9 18 5 21 3 15 -7 -6 -10 -4 -12 8 -7 10 3 17 2 17 -2 0
-5 14 -14 31 -20 40 -14 42 -14 34 2 -4 6 2 3 12 -9 23 -26 54 -39 47 -19 -5
11 -1 12 19 2 13 -6 24 -18 23 -25 -1 -8 6 -17 14 -19 13 -4 13 -3 0 6 -12 8
-11 10 7 9 12 -1 19 -7 16 -14 -5 -15 31 -37 42 -26 5 4 5 2 2 -4 -4 -7 4 -19
18 -28 18 -12 23 -13 19 -3 -7 20 24 43 38 29 15 -15 31 -15 22 0 -4 7 -3 8 5
4 6 -4 9 -11 7 -15 -8 -12 69 -83 79 -74 4 5 5 3 2 -3 -3 -6 7 -24 23 -39 17
-16 30 -26 30 -22 0 3 -10 16 -22 28 l-23 21 23 -11 c12 -6 23 -15 23 -19 6
-34 5 -71 -1 -67 -4 3 -13 -2 -20 -9 -9 -12 -7 -17 8 -25 11 -6 23 -7 28 -3 5
4 2 -1 -5 -10 -11 -15 -11 -19 3 -24 9 -3 13 -10 10 -15 -3 -5 0 -9 6 -9 6 0
8 -5 5 -11 -4 -6 2 -13 13 -16 21 -5 39 -33 22 -33 -5 0 -7 -7 -4 -15 3 -8 11
-13 17 -12 7 1 11 -8 10 -21 -2 -16 1 -21 9 -16 8 5 9 2 5 -9 -3 -10 -2 -17 3
-17 6 0 9 -3 9 -7 -5 -28 3 -64 17 -77 8 -9 12 -20 9 -26 -3 -5 -2 -10 3 -10
5 0 9 -17 9 -37 1 -81 1 -83 31 -83 15 0 32 -4 37 -8 6 -4 10 -58 10 -125 0
-103 -2 -117 -17 -117 -9 0 -19 -6 -21 -12 -4 -10 -8 -9 -16 2 -5 8 -13 11
-18 7 -4 -5 -1 -13 7 -18 11 -8 12 -12 3 -15 -7 -3 -9 -12 -6 -20 3 -8 0 -14
-7 -14 -8 0 -10 -9 -6 -26 5 -19 3 -24 -5 -18 -9 5 -10 1 -7 -14 4 -12 2 -22
-4 -22 -6 0 -8 -8 -6 -18 3 -10 -1 -24 -9 -31 -8 -7 -12 -19 -9 -27 3 -8 1
-14 -5 -14 -6 0 -7 -4 -4 -10 3 -5 1 -10 -5 -10 -6 0 -10 -6 -9 -12 3 -27 -1
-39 -13 -32 -8 5 -9 2 -5 -10 5 -11 3 -15 -5 -10 -8 5 -9 2 -5 -10 4 -9 3 -15
-1 -12 -5 3 -22 -19 -39 -49 -21 -36 -28 -56 -20 -59 7 -3 3 -4 -7 -3 -10 1
-21 -4 -23 -10 -3 -7 2 -13 10 -13 17 0 30 -37 16 -46 -5 -3 -7 -10 -3 -15 3
-5 0 -8 -8 -7 -7 2 -12 -3 -10 -10 1 -6 -2 -11 -7 -10 -14 4 -52 -44 -47 -58
3 -8 -2 -11 -14 -9 -19 4 -35 -10 -35 -29 0 -16 -39 -15 -58 2 -13 11 -20 13
-25 5 -7 -11 -12 -13 -33 -13 -5 0 -7 -5 -3 -12 4 -6 3 -8 -4 -4 -6 3 -15 -2
-21 -11 -5 -10 -13 -17 -18 -16 -4 2 -16 0 -26 -3 -14 -4 -17 -12 -12 -34 6
-28 2 -31 -52 -45 -22 -6 -73 -49 -79 -67 -3 -10 -9 -16 -13 -14 -15 10 -50
-24 -44 -41 5 -12 2 -15 -10 -10 -10 4 -20 0 -26 -11 -10 -16 -10 -16 -11 1 0
9 -4 17 -10 17 -6 0 -7 18 -3 47 5 37 3 44 -7 38 -10 -6 -12 -4 -7 10 4 9 2
24 -4 31 -6 7 -8 18 -4 25 4 6 1 16 -6 21 -11 7 -11 11 -1 15 14 5 17 33 3 33
-6 0 -7 16 -4 37 4 26 3 34 -5 29 -8 -5 -10 2 -6 24 4 18 2 30 -4 30 -5 0 -8
9 -5 20 3 11 0 20 -6 20 -21 0 -6 62 22 91 28 29 44 38 32 19 -5 -9 21 -78 34
-90 4 -3 6 -12 6 -20 0 -8 6 -14 13 -12 6 1 12 -2 12 -8 0 -5 -7 -10 -16 -10
-10 0 -14 -6 -11 -14 3 -8 -1 -13 -10 -12 -19 1 -43 -35 -27 -41 6 -2 9 -15 6
-28 -3 -16 0 -25 8 -25 9 0 11 -11 7 -35 -3 -19 -2 -35 4 -35 5 0 9 5 9 11 0
6 7 8 16 5 9 -3 23 2 32 12 10 10 13 12 9 5 -10 -14 -1 -33 16 -33 9 0 9 2 0
8 -10 6 -8 12 5 22 9 8 23 15 30 16 29 2 33 5 26 16 -5 8 -2 9 10 5 10 -4 24
1 36 13 11 11 20 17 20 13 0 -4 7 2 15 14 10 14 22 19 35 16 11 -3 17 -9 14
-15 -3 -5 -15 -6 -27 -3 -16 5 -18 4 -8 -3 11 -8 7 -13 -18 -26 -17 -9 -31
-19 -31 -22 0 -3 21 6 48 22 53 30 163 116 157 122 -2 2 -26 -14 -53 -37 -54
-46 -61 -49 -58 -23 2 9 8 17 15 17 14 0 32 26 25 37 -3 4 0 8 6 8 7 0 9 -7 5
-17 -5 -15 -4 -16 7 -5 7 7 13 18 13 25 0 7 8 11 17 9 9 -1 30 16 49 40 25 31
29 40 15 35 -16 -6 -17 -5 -6 8 9 11 15 12 20 5 7 -11 47 38 42 53 -1 4 3 7 9
7 5 0 7 5 3 12 -4 6 -3 8 3 5 5 -3 17 7 27 24 9 16 14 29 9 29 -4 0 -1 5 7 10
9 6 11 10 3 10 -7 0 -10 7 -6 16 5 13 7 13 14 2 7 -10 9 -10 9 0 0 21 3 27 19
40 12 10 13 15 4 18 -18 8 -16 24 2 24 9 0 12 6 9 15 -4 8 -1 15 6 15 6 0 8 5
5 10 -3 6 -2 10 3 10 6 0 8 10 5 22 -4 19 -3 20 7 8 9 -12 11 -10 7 13 -2 16
0 27 7 27 6 0 4 5 -4 10 -11 7 -12 10 -2 10 9 0 11 7 7 20 -4 12 -2 20 5 20 7
0 10 8 7 20 -3 11 -1 20 4 20 5 0 9 16 9 35 0 19 -4 35 -10 35 -5 0 -10 15
-10 34 0 19 5 38 10 41 12 8 13 72 1 79 -5 3 -7 16 -3 28 4 16 2 19 -8 13 -10
-6 -12 -1 -7 23 4 20 2 32 -4 32 -7 0 -8 12 -4 33 5 25 4 29 -5 17 -10 -13
-11 -13 -6 2 6 21 -15 87 -29 88 -5 0 -10 8 -10 18 -1 31 -16 62 -27 56 -6 -4
-9 -1 -6 7 8 21 -11 51 -28 45 -8 -3 -13 -2 -9 3 3 5 2 11 -2 14 -5 2 -1 2 7
0 10 -2 8 2 -4 12 -11 8 -17 15 -13 15 4 0 0 11 -9 25 -9 14 -20 22 -25 19 -5
-3 -6 3 -2 12 4 12 3 15 -6 10 -7 -5 -10 -2 -9 6 2 7 -3 12 -9 11 -7 -2 -13 4
-13 13 0 9 -5 12 -12 8 -6 -4 -8 -3 -5 3 8 13 -16 35 -34 31 -8 -2 -14 6 -14
17 -1 11 -6 19 -13 17 -7 -1 -12 4 -12 11 0 7 -9 18 -20 25 -24 15 -26 9 -4
-13 9 -9 14 -18 11 -21 -3 -3 -17 12 -32 34 -27 42 -55 61 -56 39 0 -7 -4 -2
-9 10 -7 16 -14 21 -26 16 -11 -4 -15 -2 -11 4 4 6 0 13 -7 16 -8 3 -17 1 -20
-6 -2 -7 -5 -3 -5 8 -1 17 -3 17 -11 5 -8 -13 -10 -13 -10 2 0 9 -5 20 -12 24
-7 4 -8 3 -4 -4 4 -7 3 -12 -2 -12 -6 0 -13 7 -16 16 -4 10 -12 14 -22 10 -9
-3 -28 -3 -42 1 l-27 6 35 12 35 12 -38 12 c-21 7 -40 11 -43 8 -3 -2 8 -8 23
-12 l28 -8 -30 -7 c-16 -3 -29 -11 -28 -18 2 -7 0 -11 -5 -11 -19 3 -33 -2
-27 -11 3 -5 -1 -10 -9 -10 -9 0 -16 9 -16 21 0 11 5 17 10 14 13 -8 12 -5 -1
33 -10 28 -15 31 -40 27 -16 -3 -29 -1 -29 5 0 5 -20 10 -45 10 -25 0 -45 -5
-45 -11 0 -5 -4 -7 -10 -4 -15 9 -81 -6 -74 -17 4 -6 -3 -5 -15 1 -19 11 -21
9 -21 -14 0 -34 -33 -31 -38 4 -2 13 0 21 6 17 6 -3 23 1 38 10 28 15 27 15
-35 11 -35 -3 -67 -10 -71 -17 -4 -7 -17 -10 -31 -6 -13 3 -18 3 -11 0 6 -3
12 -16 12 -29 0 -13 6 -26 13 -28 6 -3 0 -5 -15 -4 -15 1 -25 4 -22 8 7 12
-15 21 -58 25 -31 2 -59 -7 -129 -43 -49 -25 -94 -52 -101 -61 -7 -8 7 -3 31
12 24 15 72 41 108 58 54 25 68 28 91 19 21 -9 22 -10 5 -7 -13 2 -23 1 -23
-4 0 -4 -6 -8 -12 -7 -33 1 -49 -4 -43 -13 3 -6 -1 -7 -9 -4 -9 4 -18 -1 -22
-10 -3 -9 -10 -14 -14 -11 -15 9 -101 -48 -112 -74 -6 -16 -12 -21 -15 -13 -4
10 -8 10 -19 1 -11 -9 -12 -14 -4 -19 8 -5 7 -9 -4 -13 -9 -4 -16 -2 -16 4 0
6 -4 8 -10 4 -5 -3 -7 -12 -4 -19 5 -14 -23 -43 -33 -32 -3 3 -1 6 5 6 7 0 12
4 12 10 0 5 -8 7 -17 4 -10 -3 7 18 37 47 30 29 44 47 31 40 -58 -32 -251
-252 -251 -287 0 -4 19 20 43 53 50 73 117 147 125 139 3 -3 -2 -14 -10 -23
-9 -10 -13 -25 -11 -33 3 -11 2 -12 -4 -2 -7 10 -14 8 -28 -8 -18 -20 -18 -21
1 -15 18 6 18 6 2 -8 -10 -8 -18 -20 -18 -28 0 -11 -2 -11 -9 -1 -12 19 -32
-8 -26 -37 2 -12 0 -19 -6 -16 -5 4 -6 11 -3 17 4 7 2 8 -4 4 -7 -4 -12 -18
-12 -31 0 -37 -10 -54 -28 -48 -12 5 -14 2 -9 -11 4 -9 3 -15 -2 -12 -5 3 -11
-1 -15 -9 -3 -8 -1 -15 5 -15 6 0 7 -5 4 -10 -4 -6 -11 -8 -16 -5 -5 4 -9 2
-9 -4 0 -5 3 -11 8 -14 4 -2 1 -2 -6 0 -9 2 -11 -3 -7 -17 4 -12 2 -20 -5 -20
-7 0 -10 -7 -6 -15 3 -8 1 -15 -5 -15 -6 0 -8 -7 -5 -16 3 -9 2 -12 -5 -9 -6
4 -8 -4 -4 -22 l5 -28 -11 28 c-8 20 -8 36 0 59 6 17 9 33 6 36 -5 5 -7 -1
-29 -80 -18 -64 -20 -101 -3 -48 12 35 12 34 15 -29 2 -41 -1 -67 -9 -71 -7
-5 -9 -19 -4 -39 4 -20 3 -31 -4 -31 -6 0 -11 -16 -11 -35 0 -19 5 -35 10 -35
7 0 8 -13 4 -35 -4 -23 -2 -35 5 -35 6 0 11 -9 11 -21 0 -11 -4 -18 -9 -15 -5
4 -7 -3 -4 -14 3 -11 9 -17 14 -14 6 3 7 -11 3 -34 -4 -27 -2 -43 8 -53 8 -8
14 -22 12 -32 -1 -10 3 -23 10 -30 11 -9 11 -14 -2 -23 -13 -9 -12 -16 6 -57
12 -26 23 -47 26 -47 3 0 -4 21 -15 46 -12 25 -18 48 -15 51 3 3 11 -8 18 -24
7 -17 17 -32 23 -34 5 -2 9 -10 7 -17 -2 -6 2 -12 8 -12 6 0 9 -4 6 -8 -3 -5
4 -19 15 -30 11 -12 17 -22 14 -22 -3 0 -1 -9 5 -20 6 -12 16 -18 23 -14 7 4
9 4 5 -1 -11 -12 12 -47 27 -41 9 3 12 0 8 -10 -6 -17 45 -76 59 -68 4 3 8 -2
8 -10 0 -9 7 -16 15 -16 8 0 14 -6 13 -13 -2 -7 6 -12 18 -11 15 0 20 -4 17
-13 -3 -8 -1 -13 5 -11 6 2 18 -6 27 -17 9 -11 14 -14 10 -7 -3 6 -1 12 4 12
6 0 11 -7 11 -16 0 -11 5 -14 16 -10 12 4 15 2 10 -9 -5 -14 10 -20 37 -16 4
0 6 -5 5 -11 -2 -7 4 -13 12 -13 8 0 18 -4 22 -10 5 -6 8 -5 8 3 0 7 5 10 10
7 6 -3 10 -13 10 -22 0 -11 -6 -14 -22 -10 -22 6 -22 6 -4 -8 24 -18 40 -20
30 -4 -5 8 1 10 20 7 15 -3 26 -1 26 6 0 6 7 2 15 -8 8 -11 15 -16 15 -10 0 5
4 3 9 -4 6 -11 13 -11 35 -1 21 10 27 18 23 36 -2 13 -1 23 4 23 14 0 1 81
-16 100 -12 13 -15 27 -11 45 4 17 3 24 -4 20 -5 -3 -10 -1 -10 4 0 6 7 11 15
11 20 0 35 32 29 61 -5 19 -3 21 5 9 9 -12 11 -12 11 -1 0 8 7 4 18 -10 22
-28 39 -139 21 -139 -6 0 -9 -9 -6 -20 3 -11 1 -20 -4 -20 -5 0 -7 -14 -4 -31
4 -22 2 -28 -6 -23 -9 5 -10 -3 -5 -29 5 -24 3 -36 -6 -39 -10 -4 -10 -8 1
-22 12 -14 12 -19 1 -29 -10 -9 -11 -9 -6 1 5 8 0 12 -16 12 l-22 0 22 -16
c22 -15 32 -52 11 -38 -9 5 -10 -1 -5 -20 4 -18 3 -25 -4 -21 -6 4 -10 -6 -10
-24 0 -18 5 -31 12 -31 9 0 9 -3 0 -12 -9 -9 -15 -8 -27 8 -8 10 -15 15 -15 9
0 -5 -7 1 -16 13 -8 12 -22 22 -30 22 -8 0 -13 3 -11 8 2 4 -10 18 -27 32 -23
19 -27 20 -16 5 14 -19 14 -19 -2 -6 -10 7 -18 19 -19 25 0 6 -19 26 -41 44
-32 25 -43 30 -50 20 -7 -9 -8 -4 -5 15 2 15 2 26 0 23 -2 -2 -16 7 -30 20
-14 13 -29 21 -34 18 -5 -3 -9 -1 -9 5 0 6 -9 15 -21 21 -16 9 -24 8 -38 -4
-20 -19 -41 -21 -41 -5 0 6 -7 8 -17 5 -10 -4 -14 -4 -10 0 10 10 -34 55 -46
47 -6 -3 -7 -1 -4 4 4 6 -9 27 -29 46 -39 38 -59 102 -28 90 12 -4 15 -1 12
13 -2 10 -10 19 -18 19 -8 0 -14 8 -12 17 1 9 -3 20 -9 24 -8 5 -9 3 -4 -6 5
-9 4 -11 -4 -6 -6 4 -8 12 -5 18 4 6 1 16 -7 22 -8 6 -14 18 -14 26 0 8 -6 16
-12 16 -26 3 -28 4 -16 12 10 6 8 17 -8 47 -12 22 -25 41 -29 43 -4 2 -6 11
-3 21 2 10 -3 25 -11 34 -9 8 -13 23 -10 31 3 9 1 16 -6 16 -7 0 -9 8 -5 21 5
14 3 19 -4 15 -7 -5 -9 6 -5 37 6 42 -7 70 -21 47 -3 -5 -16 -10 -29 -10 -21
0 -22 3 -18 55 3 36 0 55 -7 55 -6 0 -11 17 -11 40 0 23 5 40 11 40 7 0 10 15
7 40 -3 39 -3 40 29 40 25 0 31 4 27 15 -4 8 -1 15 6 15 8 0 9 10 5 30 -4 20
-3 30 5 30 7 0 9 8 5 20 -4 12 -2 20 5 20 6 0 8 5 5 10 -3 6 -1 10 6 10 6 0 9
8 6 20 -3 11 -1 20 4 20 5 0 9 5 9 11 0 5 -6 7 -13 4 -6 -4 -4 0 5 8 10 8 15
17 11 20 -3 4 -1 7 5 7 6 0 10 12 9 27 -1 19 3 28 13 28 10 0 14 10 13 29 -1
19 2 26 11 23 11 -4 43 41 48 68 1 6 11 17 22 26 23 19 16 48 -14 56 -22 6
-27 23 -7 23 15 0 67 54 67 71 0 7 3 10 6 6 6 -6 74 51 72 62 -4 37 12 40 46
6 24 -24 43 -34 32 -17 -2 4 3 16 11 27 13 17 15 17 9 2 -3 -11 -2 -16 4 -12
6 3 10 14 10 23 0 12 3 13 8 5 6 -9 14 -8 35 6 15 9 24 21 20 25 -4 4 0 4 9 1
11 -5 22 2 33 22 9 15 14 20 11 11 -7 -25 9 -22 35 5 12 12 19 16 15 10 -4 -7
-2 -13 4 -13 6 0 13 6 16 14 3 9 12 12 21 9 10 -4 14 -2 10 4 -5 7 0 9 13 6
12 -3 20 0 20 6 0 7 5 9 10 6 6 -3 10 -1 10 5 0 7 8 9 20 5 12 -4 20 -2 20 5
0 6 11 8 28 4 22 -4 24 -3 12 6 -12 9 -8 11 18 6 24 -4 34 -2 39 10 5 13 7 13
14 2 6 -8 9 -1 9 22 l0 35 120 1 c82 1 120 -2 120 -10z m10 -130 c0 -2 -7 -7
-16 -10 -8 -3 -12 -2 -9 4 6 10 25 14 25 6z m-153 -12 c-3 -3 -12 -4 -19 -1
-8 3 -5 6 6 6 11 1 17 -2 13 -5z m108 -4 c3 -5 -1 -10 -9 -10 -8 0 -18 5 -21
10 -3 6 1 10 9 10 8 0 18 -4 21 -10z m629 -115 c9 -14 15 -25 13 -25 -2 0 -13
11 -25 25 -12 14 -18 25 -13 25 5 0 16 -11 25 -25z m-1198 -7 c4 -7 3 -8 -4
-4 -7 4 -12 2 -12 -5 0 -7 -3 -10 -6 -6 -6 5 3 27 11 27 2 0 7 -5 11 -12z
m-301 -77 c3 -5 1 -12 -5 -16 -5 -3 -10 1 -10 9 0 18 6 21 15 7z m1645 -371
c0 -5 -2 -10 -4 -10 -3 0 -8 5 -11 10 -3 6 -1 10 4 10 6 0 11 -4 11 -10z
m-1573 -862 c-3 -8 -6 -5 -6 6 -1 11 2 17 5 13 3 -3 4 -12 1 -19z m548 -17
c-6 -5 -25 10 -25 20 0 5 6 4 14 -3 8 -7 12 -15 11 -17z m365 15 c0 -2 -8 -10
-17 -17 -16 -13 -17 -12 -4 4 13 16 21 21 21 13z"/>
<path d="M1273 2233 c9 -2 23 -2 30 0 6 3 -1 5 -18 5 -16 0 -22 -2 -12 -5z"/>
<path d="M1498 2203 c7 -3 16 -2 19 1 4 3 -2 6 -13 5 -11 0 -14 -3 -6 -6z"/>
<path d="M995 2190 c-8 -13 5 -13 25 0 13 8 13 10 -2 10 -9 0 -20 -4 -23 -10z"/>
<path d="M1630 2160 c20 -13 33 -13 25 0 -3 6 -14 10 -23 10 -15 0 -15 -2 -2
-10z"/>
<path d="M1730 2117 c0 -2 28 -21 62 -43 34 -21 97 -70 139 -108 61 -57 59
-54 -11 14 -49 47 -111 98 -139 113 -28 16 -51 26 -51 24z"/>
<path d="M1890 2089 c0 -5 5 -7 10 -4 6 3 10 8 10 11 0 2 -4 4 -10 4 -5 0 -10
-5 -10 -11z"/>
<path d="M2046 1830 c46 -67 64 -87 38 -42 -10 19 -32 48 -47 65 -20 23 -18
17 9 -23z"/>
<path d="M441 1713 c-10 -26 -10 -27 4 -9 8 11 15 23 15 28 0 15 -7 8 -19 -19z"/>
<path d="M2131 1690 c0 -15 38 -91 39 -79 0 4 -9 26 -20 50 -11 24 -19 37 -19
29z"/>
<path d="M416 1665 c-9 -26 -7 -32 5 -12 6 10 9 21 6 23 -2 3 -7 -2 -11 -11z"/>
<path d="M2171 1585 c1 -19 18 -51 18 -35 0 8 -4 22 -9 30 -5 8 -9 11 -9 5z"/>
<path d="M352 1420 c0 -19 2 -27 5 -17 2 9 2 25 0 35 -3 9 -5 1 -5 -18z"/>
<path d="M2212 1400 c0 -14 2 -19 5 -12 2 6 2 18 0 25 -3 6 -5 1 -5 -13z"/>
<path d="M343 1295 c0 -38 2 -53 4 -32 2 20 2 52 0 70 -2 17 -4 1 -4 -38z"/>
<path d="M2221 1334 c0 -11 3 -14 6 -6 3 7 2 16 -1 19 -3 4 -6 -2 -5 -13z"/>
<path d="M2192 1295 c0 -16 2 -22 5 -12 2 9 2 23 0 30 -3 6 -5 -1 -5 -18z"/>
<path d="M2222 1260 c0 -14 2 -19 5 -12 2 6 2 18 0 25 -3 6 -5 1 -5 -13z"/>
<path d="M2212 1185 c0 -16 2 -22 5 -12 2 9 2 23 0 30 -3 6 -5 -1 -5 -18z"/>
<path d="M352 1150 c0 -14 2 -19 5 -12 2 6 2 18 0 25 -3 6 -5 1 -5 -13z"/>
<path d="M362 1100 c0 -14 2 -19 5 -12 2 6 2 18 0 25 -3 6 -5 1 -5 -13z"/>
<path d="M2177 1027 c-10 -34 -34 -95 -52 -134 -19 -40 -32 -73 -30 -73 16 0
111 238 104 259 -2 6 -12 -17 -22 -52z"/>
<path d="M371 1060 c0 -8 7 -31 15 -50 l14 -35 -6 35 c-7 40 -24 76 -23 50z"/>
<path d="M492 779 c13 -22 64 -82 113 -133 95 -97 119 -117 157 -136 18 -9 17
-6 -7 15 -16 14 -29 30 -28 35 2 5 -4 7 -12 4 -19 -8 -155 129 -201 202 -41
64 -55 72 -22 13z"/>
<path d="M2065 783 l-17 -28 23 22 c12 12 20 25 17 28 -3 3 -13 -7 -23 -22z"/>
<path d="M1987 685 c-32 -36 -54 -65 -49 -65 5 0 24 18 42 40 17 21 40 49 51
61 18 21 23 29 17 29 -2 0 -29 -29 -61 -65z"/>
<path d="M810 481 c0 -9 30 -24 36 -18 2 1 -6 8 -16 15 -11 7 -20 8 -20 3z"/>
<path d="M1640 430 c-9 -6 -10 -10 -3 -10 6 0 15 5 18 10 8 12 4 12 -15 0z"/>
<path d="M1035 420 c-3 -5 -1 -10 4 -10 6 0 11 5 11 10 0 6 -2 10 -4 10 -3 0
-8 -4 -11 -10z"/>
<path d="M970 405 c14 -8 34 -14 45 -14 11 0 2 6 -20 14 -50 18 -57 18 -25 0z"/>
<path d="M1555 400 c-13 -6 -15 -9 -5 -9 8 0 22 4 30 9 18 12 2 12 -25 0z"/>
<path d="M1719 393 c-13 -17 -13 -17 6 -3 11 8 22 16 24 17 2 2 0 3 -6 3 -6 0
-17 -8 -24 -17z"/>
<path d="M1508 383 c7 -3 16 -2 19 1 4 3 -2 6 -13 5 -11 0 -14 -3 -6 -6z"/>
</g>
</svg>
